<svg width="300" height="120" viewBox="0 0 300 120" xmlns="http://www.w3.org/2000/svg" xmlns:xlink="http://www.w3.org/1999/xlink"><title>B25A3A66-38F0-4BF9-8896-1CDEDDB9A6AA</title><defs><path id="a" d="M0 0h300v120H0z"/></defs><g fill="none" fill-rule="evenodd"><mask id="b" fill="#fff"><use xlink:href="#a"/></mask><use fill="#EEECEB" xlink:href="#a"/><g fill="#D2D0CE" opacity=".35" mask="url(#b)"><path d="M118.907 84.732c-2.56 4.433-7.494 6.683-12.23 6.15-.09-.05-.227-.015-.227-.015-1.985-.22-2.6 1.05-2.6 1.05l-23.998 44.206c-1.066 2.05-3.64 2.65-5.576 1.532l-.88-.508c-2.023-1.168-2.653-3.734-1.46-5.596L98.27 88.58c.15-.26.615-1.267-.442-2.69-3.005-3.936-3.562-9.472-.953-13.992l11.632-18.318c.702-1.217 1.97-1.18 2.41-.925l-11.892 20.6 11.893-20.6c.528.304 1.056 1.42.404 2.55l-10.048 19.232 4.487 2.59 11.632-18.317c.703-1.216 1.972-1.18 2.412-.925l-11.894 20.6 11.894-20.6c.527.305 1.056 1.42.404 2.55L110.16 79.567l4.487 2.59 11.63-18.317c.703-1.218 1.972-1.18 2.412-.927l-11.894 20.6 11.893-20.6c.527.305 1.056 1.42.403 2.55l-10.186 19.27zm14.527 22.178l1.72-3.18 11.792-20.426c1.204-2.086 3.56-7.794 1.148-9.304-4.487-2.59-13.752 4.925-20.677 16.92-4.567 7.91-6.757 18.814-6.64 24.096l-19.85 32.348c-1.24 1.948-.473 4.478 1.463 5.595l.88.507c2.023 1.17 4.56.43 5.576-1.532l24.588-45.025zM269.156-7.564c-2.56 4.433-7.494 6.683-12.23 6.15-.09-.05-.227-.015-.227-.015-1.986-.218-2.6 1.05-2.6 1.05l-24 44.207c-1.065 2.05-3.64 2.65-5.575 1.532l-.88-.51c-2.023-1.167-2.653-3.733-1.46-5.594l26.334-42.974c.15-.26.614-1.267-.443-2.688-3.005-3.938-3.562-9.474-.953-13.994l11.632-18.318c.702-1.216 1.97-1.18 2.41-.925l-11.892 20.6 11.893-20.6c.528.305 1.056 1.42.404 2.55L251.524-17.86l4.487 2.59 11.63-18.317c.704-1.217 1.973-1.18 2.413-.926l-11.894 20.6 11.893-20.6c.527.305 1.056 1.42.404 2.55L260.41-12.73l4.486 2.59 11.63-18.317c.703-1.217 1.972-1.18 2.412-.926l-11.893 20.6 11.893-20.6c.528.305 1.057 1.42.404 2.55l-10.186 19.27zm14.527 22.178l1.72-3.18 11.792-20.426c1.204-2.086 3.56-7.794 1.148-9.303-4.487-2.59-13.752 4.924-20.677 16.92-4.567 7.908-6.757 18.813-6.64 24.095l-19.85 32.348c-1.24 1.948-.473 4.478 1.463 5.595l.88.508c2.022 1.17 4.56.432 5.575-1.53l24.588-45.026zM73.424 35.147c-2.32-1.033-4.733-1.534-7.107-1.534l-.49-5.643 18.496 8.235c.437.194.944.006 1.134-.42.19-.43-.01-.932-.445-1.126L65.67 26.047l-.182-2.127.346-.405 2.526-.914c.353-.125.67-.295.96-.505 1.98-1.267 3.066-3.644 2.56-6.096L68.127-2.074c-.676-3.22-3.856-5.334-7.112-4.724-.256.05-.497.117-.736.187-.274.054-.545.137-.81.247L40.384 1.873c-1.898.814-2.802 2.927-2.137 4.846l-2.284-1.004c-.622-.277-1.26-.19-1.53.415-.272.612.096 1.142.723 1.415l3.665 1.618-1.422 2.014c-.003 0-.052.108-.052.108l-2.128 2.902-5.356 6.84 4.79-10.758c.262-.59-.015-1.276-.616-1.544-.594-.265-1.286-.01-1.548.58l-5.11 11.48-16.962-7.552c-.013-.006-.027-.012-.044-.013-.295-.137-.637-.154-.957-.014-.595.253-.855.94-.59 1.53l4.707 10.288c-1.97 1.22-3.603 3.013-4.605 5.262-2.71 6.085.143 13.286 6.36 16.054 6.21 2.766 13.475.064 16.183-6.017 2.144-4.816.8-10.334-2.936-13.796l7.163-9.257 6.825 18.07-.762 6.626c-.2 1.78.83 3.438 2.425 4.125.345.154.715.257 1.115.303 1.178.158 2.287-.218 3.112-.93l1.426.514c-2.213 8.005 1.84 16.717 9.818 20.25 8.744 3.87 18.95.054 22.746-8.52 3.795-8.56-.228-18.685-8.978-22.56zm-44.514 4.04c-2.096 4.706-7.708 6.796-12.513 4.656-4.806-2.14-7.008-7.708-4.912-12.414.716-1.61 1.844-2.915 3.214-3.843l3.786 8.285c-.022.35.106.704.387.968.106.096.22.17.345.226.462.206 1.024.115 1.385-.268l6.252-8.08c2.726 2.678 3.674 6.833 2.055 10.47zm-8.897-5.606l-3.234-7.068c2.25-.82 4.832-.8 7.214.26.336.15.656.317.964.496l-4.945 6.313zm5.1-9.314c-3.135-1.396-6.537-1.397-9.484-.277l-3.387-7.403 15.264 6.796c.14.062.285.082.422.1l-1.263 1.613c-.49-.31-1.01-.587-1.554-.83zM41.648 9.514c.016-.028.03-.05.048-.076.67.066 1.353-.027 2.002-.304l13.306-5.74 2.874 13.8-2.974 1.074-16.435-7.28 1.178-1.474zm4.59 12.6c-1.4.505-2.39 1.747-2.557 3.21l-.532 4.635-5.623-14.743 1.234-1.71 14.062 6.235-6.583 2.372zm4.098 15.703l1.048-9.09 9.75-3.516-10.798 12.607zm.47 5.91l-.022.05-1.11-.4c.025-.125.05-.26.064-.39l.073-.62 13.457-15.77.67 7.26c-5.65.796-10.692 4.36-13.13 9.87zM64.1 36.636l1.053 12.286-11.796-4.228c2.032-4.46 6.15-7.345 10.743-8.057zM60.792 63.67c-6.595-2.92-9.974-10.088-8.245-16.713L66.13 51.83c.388.145.827.077 1.15-.165.334-.25.508-.64.47-1.046l-1.21-14.154c1.913.03 3.87.43 5.736 1.262 7.31 3.234 10.666 11.688 7.5 18.84-3.172 7.15-11.684 10.336-18.984 7.103z"/><path d="M16.622-6.715L33.43.768l-7.33 16.46L9.294 9.745zM73.156 15.015L69.312-3.357l9.71-2.032 3.843 18.373z"/><g transform="rotate(24 -20.144 460.313)"><path d="M69.49 48.047c-2.54 0-4.948.524-7.117 1.49L59.63 44.58h20.247c.478 0 .864-.378.864-.845 0-.47-.385-.846-.863-.846H58.705l-1.032-1.87.152-.512 1.936-1.862c.272-.26.49-.543.672-.852 1.292-1.964 1.318-4.577-.142-6.61L49.513 16.2c-1.928-2.668-5.693-3.306-8.42-1.424-.212.15-.405.31-.595.47-.23.162-.442.348-.638.556L25.77 31.09c-1.4 1.515-1.368 3.813.02 5.296l-2.494.012c-.68 0-1.23.338-1.23 1.002 0 .668.552 1.003 1.236.997l4.006-.012-.48 2.418c-.003 0-.003.12-.003.12l-.763 3.516-2.11 8.427V41.09c0-.644-.534-1.16-1.19-1.16-.652 0-1.18.516-1.18 1.16v12.567H3.016c-.014 0-.03 0-.046.006-.325-.006-.644.117-.88.375-.44.473-.4 1.206.085 1.638l8.483 7.484c-1.303 1.914-2.066 4.218-2.066 6.68 0 6.66 5.534 12.08 12.338 12.08 6.8 0 12.338-5.423 12.338-12.08 0-5.272-3.47-9.767-8.293-11.41l2.778-11.37 13.585 13.733 1.998 6.363c.542 1.708 2.157 2.803 3.894 2.782.377 0 .758-.057 1.14-.178 1.14-.334 2.002-1.13 2.466-2.115l1.51-.11c1.236 8.213 8.482 14.523 17.207 14.504 9.563-.02 17.335-7.66 17.315-17.035-.015-9.364-7.81-16.976-17.378-16.958zM30.467 69.844c0 5.15-4.278 9.343-9.537 9.343-5.26 0-9.537-4.192-9.537-9.343 0-1.762.5-3.412 1.373-4.818l6.83 6.03c.123.328.384.6.748.726.135.044.27.066.406.066.506 0 .983-.312 1.157-.808l2.424-9.924c3.58 1.338 6.137 4.747 6.137 8.728zM20.06 68.34L14.23 63.2c1.723-1.666 4.09-2.696 6.697-2.696.367 0 .728.023 1.082.06l-1.95 7.78zm.87-10.583c-3.432 0-6.54 1.382-8.777 3.605L6.05 55.976h16.708c.15 0 .293-.04.425-.08l-.496 1.987c-.574-.082-1.16-.126-1.757-.126zm9.105-20.202c.003-.032.007-.057.013-.09.638-.21 1.225-.574 1.705-1.09l9.82-10.658 8.24 11.44-2.28 2.19-17.975.035.477-1.827zm9.32 9.643c-1.075 1.032-1.475 2.57-1.033 3.973l1.4 4.452-11.134-11.18.432-2.064 15.383-.025-5.05 4.845zm10.13 12.68l-2.74-8.73 7.477-7.18-4.738 15.91zm2.832 5.208v.054l-1.177.085c-.028-.123-.06-.256-.1-.382l-.185-.597 5.878-19.878 3.565 6.358c-4.838 3.028-7.994 8.334-7.98 14.36zm9.26-11.887l5.96 10.795-12.497.934c.042-4.9 2.63-9.213 6.537-11.73zm7.974 26.044c-7.212.013-13.214-5.16-14.33-11.916l14.392-1.074c.413-.025.787-.265.983-.618.204-.364.204-.792.003-1.146l-6.86-12.437c1.758-.752 3.71-1.18 5.752-1.18 7.994-.02 14.498 6.338 14.514 14.16.012 7.822-6.47 14.195-14.453 14.21z"/><ellipse cx="36.978" cy="6.749" rx="6.443" ry="6.31"/><path d="M.572 32.908H18.97v18.018H.57zM61.056 29.765l-10.984-15.22 8.044-5.806L69.1 23.96z"/></g><path d="M44.375 94.94c2.33-3.407 4.385-7.074 6.125-10.98.123-.277.243-.553.362-.83l-19.455-9.277c-.108.698-.31 1.393-.61 2.07-1.816 4.077-6.562 5.925-10.6 4.127-4.04-1.8-5.843-6.562-4.027-10.64.36-.81.837-1.532 1.4-2.155l-1.013-.484-.442-.21L-14.414 52l2.35 16.732.017-.043.275 1.982c2.277-1.868 5.48-2.416 8.333-1.146C.6 71.324 2.402 76.088.586 80.166c-1.794 4.028-6.45 5.88-10.456 4.188l5.628 40.062c13.53-1.6 26.405-7.253 36.824-16.26l-.067-.005s.406-.342 1.067-.933c-3.05-2.166-4.246-6.276-2.652-9.856 1.815-4.077 6.56-5.924 10.6-4.126 1.044.465 1.938 1.128 2.66 1.925.106-.173.16-.265.16-.265l.025.046zm-9.144 10.762c-2.512-1.56-3.543-4.794-2.295-7.596 1.36-3.058 4.92-4.444 7.95-3.095.91.406 1.67 1.013 2.25 1.746-.82 1.172-2.05 2.807-3.69 4.644-1.442 1.615-2.965 3.123-4.214 4.302zm-45.48-24.064c.372.29.785.54 1.235.74 3.03 1.348 6.588-.038 7.95-3.096 1.36-3.058.01-6.63-3.02-7.98-2.64-1.174-5.683-.273-7.322 2.002l1.156 8.334zm39.91-8.645c-.05.688-.218 1.38-.516 2.047-1.36 3.058-4.92 4.444-7.95 3.095-3.03-1.35-4.38-4.92-3.02-7.98.34-.76.816-1.42 1.387-1.958l10.1 4.796zM2.555 98.733c-1.816 4.078-.013 8.84 4.026 10.64 4.04 1.798 8.785-.05 10.6-4.127 1.815-4.077.013-8.84-4.026-10.64-4.04-1.797-8.785.05-10.6 4.128zm2.005.746c-1.36 3.057-.01 6.63 3.02 7.978 3.03 1.35 6.59-.037 7.95-3.095 1.362-3.058.01-6.63-3.02-7.98-3.028-1.347-6.588.038-7.95 3.096zm39.522 15.57c-11.79 10.023-39.645 18.506-43.98 19.74-4.337 1.235-3.223-8.64-3.223-8.64s18.794-1.06 34.51-13.254c15.715-12.195 20.4-27.83 20.634-28.364.235-.535 7.31 1.953 6.348 5.352-.963 3.4-2.502 15.144-14.29 25.167zM179.996 2.066c-1.39-3.888-3.146-7.707-5.285-11.41-.15-.262-.302-.522-.455-.78L155.313.162c.5.498.945 1.07 1.315 1.71 2.232 3.866.937 8.792-2.892 11.002-3.83 2.21-8.74.87-10.973-2.996-.444-.768-.748-1.58-.92-2.4l-.99.535-.428.235-29.725 16.14 14.917 7.933-.024-.037 1.766.942c-.174-2.94 1.266-5.854 3.97-7.414 3.83-2.21 8.742-.87 10.973 2.997 2.205 3.82.967 8.674-2.757 10.92l35.72 18.996c6.658-11.886 9.652-25.626 8.49-39.348l-.044.05s-.04-.53-.13-1.412c-3.544 1.195-7.572-.253-9.532-3.648-2.23-3.865-.936-8.79 2.892-11 .99-.572 2.052-.906 3.122-1.02-.077-.188-.12-.285-.12-.285l.052.006zm3.33 13.723c-2.738 1.115-5.96.048-7.494-2.61-1.674-2.897-.703-6.592 2.17-8.25.862-.498 1.8-.756 2.733-.793.467 1.35 1.066 3.308 1.588 5.714.46 2.117.784 4.235 1.003 5.94zm-46.2 22.65c.452-.132.897-.32 1.323-.565 2.87-1.658 3.842-5.352 2.168-8.25-1.673-2.9-5.358-3.906-8.23-2.248-2.502 1.445-3.562 4.436-2.685 7.1l7.422 3.963zM153.59 1.07c.527.445.988.988 1.353 1.62 1.674 2.9.703 6.593-2.17 8.25-2.87 1.66-6.555.653-8.23-2.246-.416-.723-.67-1.495-.77-2.272l9.817-5.35zm4.894 37.058c2.23 3.865 7.144 5.206 10.973 2.996 3.83-2.21 5.124-7.136 2.892-11-2.233-3.867-7.145-5.208-10.974-2.997-3.83 2.21-5.124 7.136-2.892 11zm1.78-1.184c1.675 2.9 5.36 3.905 8.23 2.247 2.873-1.657 3.844-5.35 2.17-8.25-1.674-2.9-5.358-3.905-8.23-2.247-2.872 1.658-3.843 5.352-2.17 8.25zm35.828-22.82c1.18 15.428-8.33 42.95-9.88 47.183-1.55 4.234-8.885-2.472-8.885-2.472s10.19-15.828 9.562-35.71c-.63-19.882-10.524-32.86-10.82-33.365-.294-.504 5.878-4.768 8.062-1.99 2.183 2.777 10.78 10.925 11.96 26.353zM330.297 65.276c-1.39-3.888-3.147-7.707-5.285-11.41-.15-.262-.303-.522-.457-.78l-18.94 10.286c.5.497.943 1.07 1.314 1.71 2.23 3.866.936 8.79-2.893 11.002-3.83 2.21-8.742.87-10.974-2.996-.443-.768-.748-1.58-.92-2.4l-.988.535-.43.234L261 87.596l14.918 7.934-.024-.038 1.765.943c-.174-2.94 1.267-5.854 3.97-7.415 3.83-2.21 8.742-.87 10.974 2.996 2.205 3.82.967 8.674-2.757 10.922l35.72 18.995c6.657-11.886 9.65-25.626 8.49-39.348l-.045.05s-.038-.53-.128-1.412c-3.546 1.195-7.573-.253-9.533-3.648-2.23-3.865-.936-8.79 2.893-11 .99-.572 2.052-.906 3.12-1.02-.076-.188-.12-.285-.12-.285l.054.006zM333.627 79c-2.738 1.115-5.96.048-7.495-2.61-1.674-2.898-.702-6.592 2.17-8.25.863-.498 1.8-.756 2.734-.794.466 1.35 1.065 3.31 1.588 5.715.46 2.116.783 4.235 1.003 5.94zm-46.2 22.65c.452-.132.896-.32 1.323-.565 2.87-1.658 3.842-5.352 2.17-8.25-1.675-2.9-5.36-3.906-8.23-2.248-2.504 1.445-3.563 4.436-2.686 7.1l7.422 3.962zm16.463-37.37c.528.445.99.987 1.354 1.62 1.673 2.9.702 6.593-2.17 8.25-2.87 1.66-6.556.653-8.23-2.246-.417-.723-.67-1.495-.77-2.272l9.816-5.35zm4.894 37.058c2.232 3.865 7.145 5.206 10.973 2.996 3.83-2.21 5.124-7.136 2.892-11.002-2.232-3.865-7.145-5.206-10.974-2.996-3.83 2.21-5.124 7.136-2.892 11.002zm1.78-1.184c1.675 2.9 5.36 3.905 8.23 2.247 2.873-1.657 3.844-5.35 2.17-8.25-1.673-2.9-5.358-3.905-8.23-2.247-2.87 1.658-3.842 5.352-2.17 8.25zm35.83-22.82c1.178 15.427-8.333 42.95-9.882 47.183-1.55 4.234-8.884-2.472-8.884-2.472s10.19-15.828 9.56-35.71c-.628-19.882-10.52-32.862-10.816-33.366-.296-.505 5.876-4.768 8.06-1.99 2.184 2.776 10.78 10.925 11.96 26.353z"/></g></g></svg>